<svg id="Layer_1" data-name="Layer 1" xmlns="http://www.w3.org/2000/svg" viewBox="0 0 297 33"><defs><style>.cls-1{fill:#d44727;}</style></defs><title>get</title><path class="cls-1" d="M29.53,29.55a26.89,26.89,0,0,1-6.34,2.17,31.28,31.28,0,0,1-6.46.67,17,17,0,0,1-6.23-1.08A12.05,12.05,0,0,1,5.89,28.2a11.91,11.91,0,0,1-2.63-4.9A15.79,15.79,0,0,1,3,16.88a18.26,18.26,0,0,1,2.11-6.42,17.16,17.16,0,0,1,9.48-8,19.69,19.69,0,0,1,6.55-1.08,22.33,22.33,0,0,1,6.4.85,10.65,10.65,0,0,1,4.81,2.94l-5.29,5a7.34,7.34,0,0,0-2.71-2.09,10.14,10.14,0,0,0-4.09-.71,10.53,10.53,0,0,0-3.88.71,9.94,9.94,0,0,0-3.16,2,10.88,10.88,0,0,0-2.28,3,12.12,12.12,0,0,0-1.18,3.8,10,10,0,0,0,.12,3.81,7.59,7.59,0,0,0,1.44,3,7.07,7.07,0,0,0,2.6,2,9,9,0,0,0,3.67.71,13,13,0,0,0,3.76-.49,14.45,14.45,0,0,0,2.58-1l.67-4.8h-5.3l.88-6H31.7Z"/><path class="cls-1" d="M40.25,2.12h20l-.83,6H45.92l-.8,5.51H57.93l-.84,6H44.29l-.83,6h14.3l-.84,6H36.12Z"/><path class="cls-1" d="M72.1,7.87H63.68l.79-5.75H87.82L87,7.87H78.6L75.27,31.64h-6.5Z"/><path class="cls-1" d="M115,2.12h5.38l8.72,29.52h-7.34l-1.67-6.26H108.62l-3.33,6.26H98.12Zm1.3,8.59-4.88,9.17h7.21Z"/><path class="cls-1" d="M150.36,2.12h11a26.91,26.91,0,0,1,3.81.27,9.45,9.45,0,0,1,3.34,1.08,5.35,5.35,0,0,1,2.19,2.28,6.44,6.44,0,0,1,.41,3.87,7,7,0,0,1-2,4.15,9.24,9.24,0,0,1-4,2.36v.08a7.47,7.47,0,0,1,2.52.81,5.73,5.73,0,0,1,1.82,1.55,5.79,5.79,0,0,1,1,2.19,7.14,7.14,0,0,1,.08,2.66,8.14,8.14,0,0,1-1.54,3.9,9.7,9.7,0,0,1-2.92,2.53,13.22,13.22,0,0,1-3.75,1.37,19.88,19.88,0,0,1-4,.42H146.23Zm3.13,24h5.84a7.8,7.8,0,0,0,1.56-.16,4.38,4.38,0,0,0,2.65-1.67,3.42,3.42,0,0,0,.62-1.63,2.47,2.47,0,0,0-.29-1.69,2.67,2.67,0,0,0-1.17-1,5.76,5.76,0,0,0-1.64-.46,11.45,11.45,0,0,0-1.69-.13h-4.92Zm1.71-12.21h4.71a7,7,0,0,0,1.5-.17,4.85,4.85,0,0,0,1.4-.54,3.33,3.33,0,0,0,1.08-1,3.42,3.42,0,0,0,.56-1.5,2.54,2.54,0,0,0-.18-1.52,2.21,2.21,0,0,0-.9-.94A4.45,4.45,0,0,0,162,7.77a7.91,7.91,0,0,0-1.52-.15h-4.42Z"/><path class="cls-1" d="M174.63,16.88a18.25,18.25,0,0,1,2.1-6.42,17.23,17.23,0,0,1,9.49-8,19.68,19.68,0,0,1,6.54-1.08A16.94,16.94,0,0,1,199,2.45a12.1,12.1,0,0,1,4.58,3.11,11.79,11.79,0,0,1,2.63,4.9,15.62,15.62,0,0,1,.29,6.42,18.65,18.65,0,0,1-2.08,6.42,17.1,17.1,0,0,1-4,4.9,17.8,17.8,0,0,1-5.49,3.11,19.48,19.48,0,0,1-6.52,1.08,17.09,17.09,0,0,1-6.24-1.08,12,12,0,0,1-4.6-3.11,11.79,11.79,0,0,1-2.63-4.9A15.62,15.62,0,0,1,174.63,16.88Zm6.75,0a10.21,10.21,0,0,0,.13,3.81,7.46,7.46,0,0,0,1.44,3,7,7,0,0,0,2.6,2,9,9,0,0,0,3.67.71,10.24,10.24,0,0,0,7.05-2.69,11,11,0,0,0,2.27-3,11.79,11.79,0,0,0,1.19-3.81,10.43,10.43,0,0,0-.11-3.8,7.23,7.23,0,0,0-1.43-3,7.12,7.12,0,0,0-2.63-2,9,9,0,0,0-3.67-.71,10.53,10.53,0,0,0-3.88.71,10.09,10.09,0,0,0-3.17,2,11,11,0,0,0-2.27,3A12.13,12.13,0,0,0,181.38,16.88Z"/><path class="cls-1" d="M210.23,16.88a18.47,18.47,0,0,1,2.11-6.42,17.14,17.14,0,0,1,9.49-8,19.59,19.59,0,0,1,6.54-1.08,16.85,16.85,0,0,1,6.21,1.08,12.06,12.06,0,0,1,4.59,3.11,11.91,11.91,0,0,1,2.63,4.9,15.79,15.79,0,0,1,.29,6.42A18.65,18.65,0,0,1,240,23.3a17.13,17.13,0,0,1-4,4.9,17.75,17.75,0,0,1-5.48,3.11A19.49,19.49,0,0,1,224,32.39a17.07,17.07,0,0,1-6.23-1.08,12.13,12.13,0,0,1-4.61-3.11,11.77,11.77,0,0,1-2.62-4.9A15.79,15.79,0,0,1,210.23,16.88Zm6.76,0a10.22,10.22,0,0,0,.12,3.81,7.59,7.59,0,0,0,1.44,3,7,7,0,0,0,2.61,2,9,9,0,0,0,3.67.71,10.53,10.53,0,0,0,3.88-.71,10.3,10.3,0,0,0,3.16-2,10.83,10.83,0,0,0,2.28-3,12,12,0,0,0,1.19-3.81,10.43,10.43,0,0,0-.11-3.8,7.13,7.13,0,0,0-1.44-3,7,7,0,0,0-2.62-2,9,9,0,0,0-3.67-.71,10.5,10.5,0,0,0-3.88.71,10,10,0,0,0-3.17,2,10.84,10.84,0,0,0-2.27,3A11.88,11.88,0,0,0,217,16.88Z"/><path class="cls-1" d="M263.1,9.33a3.83,3.83,0,0,0-2-1.48,7.14,7.14,0,0,0-2.5-.48,7.42,7.42,0,0,0-1.5.17,6,6,0,0,0-1.48.52,4,4,0,0,0-1.19.94,2.75,2.75,0,0,0-.62,1.41,2.18,2.18,0,0,0,.35,1.65,3.78,3.78,0,0,0,1.38,1.09,12.45,12.45,0,0,0,2.08.77q1.18.33,2.4.75a18.76,18.76,0,0,1,2.36,1,7.13,7.13,0,0,1,2,1.48,5.69,5.69,0,0,1,1.23,2.25,7.77,7.77,0,0,1,.1,3.27,10.35,10.35,0,0,1-1.52,4.3,10.86,10.86,0,0,1-2.92,3,12.08,12.08,0,0,1-3.88,1.79,16.8,16.8,0,0,1-4.44.59,14.6,14.6,0,0,1-5.21-.88,11.15,11.15,0,0,1-4.21-2.83l5.38-5.09a5.7,5.7,0,0,0,2.23,2.07,6.51,6.51,0,0,0,3,.73,7.78,7.78,0,0,0,1.63-.19,6.87,6.87,0,0,0,1.54-.56,4,4,0,0,0,1.19-1,2.79,2.79,0,0,0,.6-1.38,2.12,2.12,0,0,0-.73-2.11A8.28,8.28,0,0,0,256,19.88c-1-.36-2-.72-3.17-1.08a12.84,12.84,0,0,1-3.13-1.46,6.49,6.49,0,0,1-2.23-2.42,6.47,6.47,0,0,1-.48-4,9.88,9.88,0,0,1,1.52-4.17,10.77,10.77,0,0,1,2.94-3A13.16,13.16,0,0,1,255.35,2a15.92,15.92,0,0,1,9,.11,9.17,9.17,0,0,1,3.85,2.37Z"/><path class="cls-1" d="M279.28,7.87h-8.42l.79-5.75H295l-.79,5.75h-8.42l-3.34,23.77H276Z"/></svg>