<svg id="Layer_1" data-name="Layer 1" xmlns="http://www.w3.org/2000/svg" viewBox="0 0 297 33"><defs><style>.cls-1{fill:#d44727;}</style></defs><title>give</title><path class="cls-1" d="M28.47,29.18a27.75,27.75,0,0,1-6.33,2.17A31.78,31.78,0,0,1,15.7,32a16.94,16.94,0,0,1-6.22-1.08,11.53,11.53,0,0,1-7.22-8A15.7,15.7,0,0,1,2,16.54a18.13,18.13,0,0,1,2.1-6.41,17.09,17.09,0,0,1,9.46-8,19.62,19.62,0,0,1,6.53-1.08,22.2,22.2,0,0,1,6.39.86,10.6,10.6,0,0,1,4.8,2.93L26,9.84a7.28,7.28,0,0,0-2.7-2.08,10.12,10.12,0,0,0-4.08-.71,10.44,10.44,0,0,0-3.87.71,10,10,0,0,0-3.16,2,10.84,10.84,0,0,0-2.27,3,12.06,12.06,0,0,0-1.18,3.79,10.17,10.17,0,0,0,.12,3.8,7.61,7.61,0,0,0,1.44,3,6.86,6.86,0,0,0,2.6,2,8.88,8.88,0,0,0,3.66.71,13.21,13.21,0,0,0,3.74-.48,15.26,15.26,0,0,0,2.58-1l.67-4.79H18.23l.88-6H30.63Z"/><path class="cls-1" d="M37.28,1.81h6.49L39.65,31.26H33.17Z"/><path class="cls-1" d="M46.14,1.81h7.41l4.57,19.3h.09l10.1-19.3h7L59,31.26H53.8Z"/><path class="cls-1" d="M78,1.81H98l-.83,6H83.62l-.79,5.49H95.6l-.83,6H82l-.84,6H95.43l-.83,6H73.84Z"/><path class="cls-1" d="M124.67,1.81H130l8.69,29.45h-7.32L129.75,25H118.31L115,31.26h-7.15ZM126,10.38l-4.87,9.15h7.2Z"/><path class="cls-1" d="M156.87,1.81h11a26.87,26.87,0,0,1,3.8.27A9.46,9.46,0,0,1,175,3.16a5.36,5.36,0,0,1,2.18,2.27,6.51,6.51,0,0,1,.42,3.87,7,7,0,0,1-2,4.14,9.34,9.34,0,0,1-4,2.35v.08a7.62,7.62,0,0,1,2.52.81,5.91,5.91,0,0,1,1.81,1.54,5.7,5.7,0,0,1,1,2.19,6.93,6.93,0,0,1,.09,2.66A8.14,8.14,0,0,1,175.46,27a9.86,9.86,0,0,1-2.91,2.51,12.94,12.94,0,0,1-3.75,1.38,20.48,20.48,0,0,1-4,.41H152.75Zm3.12,24h5.82a7.8,7.8,0,0,0,1.56-.16,4.68,4.68,0,0,0,1.48-.59A4.24,4.24,0,0,0,170,23.94a3.34,3.34,0,0,0,.62-1.62,2.46,2.46,0,0,0-.29-1.69,2.64,2.64,0,0,0-1.16-1,5.74,5.74,0,0,0-1.65-.46,12.52,12.52,0,0,0-1.68-.12h-4.91Zm1.7-12.18h4.7a7,7,0,0,0,1.5-.17,5.09,5.09,0,0,0,1.39-.54,3.33,3.33,0,0,0,1.08-1,3.42,3.42,0,0,0,.56-1.5,2.47,2.47,0,0,0-.18-1.52,2.24,2.24,0,0,0-.9-.93,4.49,4.49,0,0,0-1.35-.48A7.91,7.91,0,0,0,167,7.3h-4.41Z"/><path class="cls-1" d="M179.53,16.54a18.35,18.35,0,0,1,2.11-6.41,17.33,17.33,0,0,1,4-4.89,17.53,17.53,0,0,1,5.47-3.1,19.58,19.58,0,0,1,6.53-1.08,16.83,16.83,0,0,1,6.2,1.08,12.15,12.15,0,0,1,4.57,3.1A11.8,11.8,0,0,1,211,10.13a15.56,15.56,0,0,1,.29,6.41,18.33,18.33,0,0,1-2.08,6.4,16.73,16.73,0,0,1-4,4.89,17.48,17.48,0,0,1-5.47,3.1A19.42,19.42,0,0,1,193.26,32,17,17,0,0,1,187,30.93a11.92,11.92,0,0,1-4.59-3.1,11.68,11.68,0,0,1-2.62-4.89A15.69,15.69,0,0,1,179.53,16.54Zm6.74,0a10.16,10.16,0,0,0,.13,3.8,7.47,7.47,0,0,0,1.43,3,6.94,6.94,0,0,0,2.6,2,9,9,0,0,0,3.66.71,10.44,10.44,0,0,0,3.87-.71,10.09,10.09,0,0,0,3.16-2,10.9,10.9,0,0,0,2.27-3,11.56,11.56,0,0,0,1.18-3.8,10.38,10.38,0,0,0-.1-3.79,7,7,0,0,0-4.05-5,9,9,0,0,0-3.66-.71,10.44,10.44,0,0,0-3.87.71,9.83,9.83,0,0,0-3.16,2,10.47,10.47,0,0,0-2.27,3A12.07,12.07,0,0,0,186.27,16.54Z"/><path class="cls-1" d="M213.52,16.54a18.13,18.13,0,0,1,2.1-6.41,17.5,17.5,0,0,1,4-4.89,17.65,17.65,0,0,1,5.47-3.1,19.58,19.58,0,0,1,6.53-1.08,16.83,16.83,0,0,1,6.2,1.08,12.15,12.15,0,0,1,4.57,3.1A11.8,11.8,0,0,1,245,10.13a15.73,15.73,0,0,1,.3,6.41,18.75,18.75,0,0,1-2.08,6.4,16.92,16.92,0,0,1-4,4.89,17.48,17.48,0,0,1-5.47,3.1A19.42,19.42,0,0,1,227.24,32,17,17,0,0,1,221,30.93a11.92,11.92,0,0,1-4.59-3.1,11.68,11.68,0,0,1-2.62-4.89A15.52,15.52,0,0,1,213.52,16.54Zm6.74,0a10,10,0,0,0,.12,3.8,7.61,7.61,0,0,0,1.44,3,6.83,6.83,0,0,0,2.59,2,9,9,0,0,0,3.67.71,10.43,10.43,0,0,0,3.86-.71,10,10,0,0,0,3.16-2,10.7,10.7,0,0,0,2.27-3,11.81,11.81,0,0,0,1.19-3.8,10.37,10.37,0,0,0-.11-3.79,7,7,0,0,0-4-5,9,9,0,0,0-3.66-.71,10.44,10.44,0,0,0-3.87.71,9.94,9.94,0,0,0-3.16,2,10.65,10.65,0,0,0-2.27,3A11.81,11.81,0,0,0,220.26,16.54Z"/><path class="cls-1" d="M264.72,9a3.87,3.87,0,0,0-2-1.48,7.13,7.13,0,0,0-2.49-.48,7.42,7.42,0,0,0-1.5.17,6,6,0,0,0-1.48.52,4,4,0,0,0-1.18.94,2.71,2.71,0,0,0-.62,1.41,2.15,2.15,0,0,0,.35,1.64,3.62,3.62,0,0,0,1.37,1.08,13.37,13.37,0,0,0,2.08.78c.79.22,1.59.47,2.39.74a18,18,0,0,1,2.35,1,7,7,0,0,1,2,1.48,5.58,5.58,0,0,1,1.23,2.24,7.77,7.77,0,0,1,.1,3.27,10.26,10.26,0,0,1-1.52,4.28,11,11,0,0,1-2.91,3A12.47,12.47,0,0,1,259,31.43a16.72,16.72,0,0,1-4.43.58,14.81,14.81,0,0,1-5.2-.87,11.44,11.44,0,0,1-4.2-2.83l5.37-5.08a5.57,5.57,0,0,0,2.22,2.06,6.39,6.39,0,0,0,3,.73,7.08,7.08,0,0,0,1.62-.19,6,6,0,0,0,1.54-.56,3.83,3.83,0,0,0,1.18-.95,2.89,2.89,0,0,0,.61-1.38,2.12,2.12,0,0,0-.73-2.1,8.28,8.28,0,0,0-2.39-1.31c-1-.36-2-.72-3.16-1.08A12.41,12.41,0,0,1,251.37,17a6.46,6.46,0,0,1-2.23-2.41,6.43,6.43,0,0,1-.48-3.95,10,10,0,0,1,1.52-4.16,11,11,0,0,1,2.93-3A13,13,0,0,1,257,1.67a15.34,15.34,0,0,1,4.29-.61,15.58,15.58,0,0,1,4.72.71,9.23,9.23,0,0,1,3.85,2.37Z"/><path class="cls-1" d="M279.32,7.55h-8.4l.79-5.74H295l-.79,5.74h-8.4l-3.33,23.71H276Z"/></svg>